<mxfile host="app.diagrams.net" modified="2023-07-14T08:06:38.256Z" agent="Mozilla/5.0 (X11; Linux x86_64) AppleWebKit/537.36 (KHTML, like Gecko) Chrome/114.0.0.0 Safari/537.36" etag="XUsBwK6z7XltffoYv_1w" version="21.6.2" type="device">
  <diagram name="Page-1" id="kpMUmfoVHwQVzsgXgWWD">
    <mxGraphModel dx="777" dy="413" grid="1" gridSize="10" guides="1" tooltips="1" connect="1" arrows="1" fold="1" page="1" pageScale="1" pageWidth="850" pageHeight="1100" math="0" shadow="0">
      <root>
        <mxCell id="0" />
        <mxCell id="1" parent="0" />
        <mxCell id="yCm6YWUvulbSdVLSz5F3-1" value="&lt;div style=&quot;font-size: 17px;&quot; align=&quot;left&quot;&gt;&lt;blockquote style=&quot;font-size: 20px;&quot;&gt;&lt;font style=&quot;font-size: 20px;&quot;&gt;&lt;u&gt;Client&lt;/u&gt;&lt;br&gt;&lt;br&gt;&lt;br&gt;&lt;/font&gt;&lt;/blockquote&gt;&lt;/div&gt;" style="rounded=0;whiteSpace=wrap;html=1;verticalAlign=top;" parent="1" vertex="1">
          <mxGeometry x="80" y="180" width="120" height="270" as="geometry" />
        </mxCell>
        <mxCell id="yCm6YWUvulbSdVLSz5F3-2" value="&lt;div&gt;&lt;br&gt;&lt;/div&gt;&lt;div&gt;&lt;u&gt;&lt;font style=&quot;font-size: 20px;&quot;&gt;Docker Host&lt;/font&gt;&lt;/u&gt;&lt;/div&gt;" style="rounded=0;whiteSpace=wrap;html=1;verticalAlign=top;" parent="1" vertex="1">
          <mxGeometry x="270" y="180" width="360" height="270" as="geometry" />
        </mxCell>
        <mxCell id="yCm6YWUvulbSdVLSz5F3-4" value="docker run" style="rounded=0;whiteSpace=wrap;html=1;" parent="1" vertex="1">
          <mxGeometry x="102.5" y="250" width="75" height="40" as="geometry" />
        </mxCell>
        <mxCell id="yCm6YWUvulbSdVLSz5F3-5" value="docker build" style="rounded=0;whiteSpace=wrap;html=1;" parent="1" vertex="1">
          <mxGeometry x="102.5" y="310" width="75" height="40" as="geometry" />
        </mxCell>
        <mxCell id="yCm6YWUvulbSdVLSz5F3-6" value="docker pull" style="rounded=0;whiteSpace=wrap;html=1;" parent="1" vertex="1">
          <mxGeometry x="102.5" y="370" width="75" height="40" as="geometry" />
        </mxCell>
        <mxCell id="yCm6YWUvulbSdVLSz5F3-7" value="Docker Daemon" style="rounded=0;whiteSpace=wrap;html=1;" parent="1" vertex="1">
          <mxGeometry x="290" y="250" width="120" height="160" as="geometry" />
        </mxCell>
        <mxCell id="yCm6YWUvulbSdVLSz5F3-9" value="Docker Container" style="rounded=0;whiteSpace=wrap;html=1;" parent="1" vertex="1">
          <mxGeometry x="470" y="245" width="120" height="55" as="geometry" />
        </mxCell>
        <mxCell id="yCm6YWUvulbSdVLSz5F3-10" value="&lt;div&gt;Docker Images&lt;br&gt;(Lokal)&lt;br&gt;&lt;/div&gt;" style="rounded=0;whiteSpace=wrap;html=1;" parent="1" vertex="1">
          <mxGeometry x="470" y="340" width="120" height="50" as="geometry" />
        </mxCell>
        <mxCell id="yCm6YWUvulbSdVLSz5F3-11" value="&lt;br&gt;&lt;div&gt;&lt;u style=&quot;font-size: 20px;&quot;&gt;Docker Registry&lt;/u&gt;&lt;/div&gt;" style="rounded=0;whiteSpace=wrap;html=1;align=center;verticalAlign=top;" parent="1" vertex="1">
          <mxGeometry x="670" y="180" width="170" height="270" as="geometry" />
        </mxCell>
        <mxCell id="yCm6YWUvulbSdVLSz5F3-14" value="Images" style="rounded=0;whiteSpace=wrap;html=1;" parent="1" vertex="1">
          <mxGeometry x="700" y="340" width="120" height="70" as="geometry" />
        </mxCell>
        <mxCell id="yCm6YWUvulbSdVLSz5F3-15" value="" style="endArrow=classic;html=1;rounded=0;exitX=1;exitY=0.5;exitDx=0;exitDy=0;" parent="1" source="yCm6YWUvulbSdVLSz5F3-4" edge="1">
          <mxGeometry width="50" height="50" relative="1" as="geometry">
            <mxPoint x="370" y="440" as="sourcePoint" />
            <mxPoint x="290" y="270" as="targetPoint" />
          </mxGeometry>
        </mxCell>
        <mxCell id="yCm6YWUvulbSdVLSz5F3-16" value="" style="endArrow=classic;html=1;rounded=0;exitX=1;exitY=0.5;exitDx=0;exitDy=0;" parent="1" edge="1">
          <mxGeometry width="50" height="50" relative="1" as="geometry">
            <mxPoint x="177" y="329" as="sourcePoint" />
            <mxPoint x="290" y="330" as="targetPoint" />
          </mxGeometry>
        </mxCell>
        <mxCell id="yCm6YWUvulbSdVLSz5F3-17" value="" style="endArrow=classic;html=1;rounded=0;exitX=1;exitY=0.5;exitDx=0;exitDy=0;entryX=0.017;entryY=0.881;entryDx=0;entryDy=0;entryPerimeter=0;" parent="1" source="yCm6YWUvulbSdVLSz5F3-6" target="yCm6YWUvulbSdVLSz5F3-7" edge="1">
          <mxGeometry width="50" height="50" relative="1" as="geometry">
            <mxPoint x="187" y="339" as="sourcePoint" />
            <mxPoint x="300" y="340" as="targetPoint" />
          </mxGeometry>
        </mxCell>
        <mxCell id="yCm6YWUvulbSdVLSz5F3-18" value="" style="endArrow=none;dashed=1;html=1;dashPattern=1 3;strokeWidth=2;rounded=0;exitX=1;exitY=0.938;exitDx=0;exitDy=0;exitPerimeter=0;" parent="1" source="yCm6YWUvulbSdVLSz5F3-7" edge="1">
          <mxGeometry width="50" height="50" relative="1" as="geometry">
            <mxPoint x="370" y="440" as="sourcePoint" />
            <mxPoint x="700" y="400" as="targetPoint" />
          </mxGeometry>
        </mxCell>
        <mxCell id="yCm6YWUvulbSdVLSz5F3-24" value="Pull" style="edgeLabel;html=1;align=center;verticalAlign=middle;resizable=0;points=[];" parent="yCm6YWUvulbSdVLSz5F3-18" vertex="1" connectable="0">
          <mxGeometry x="-0.131" y="-3" relative="1" as="geometry">
            <mxPoint as="offset" />
          </mxGeometry>
        </mxCell>
        <mxCell id="yCm6YWUvulbSdVLSz5F3-19" value="" style="endArrow=classic;html=1;rounded=0;exitX=0;exitY=0.357;exitDx=0;exitDy=0;entryX=1;entryY=0.5;entryDx=0;entryDy=0;exitPerimeter=0;" parent="1" source="yCm6YWUvulbSdVLSz5F3-14" target="yCm6YWUvulbSdVLSz5F3-10" edge="1">
          <mxGeometry width="50" height="50" relative="1" as="geometry">
            <mxPoint x="370" y="440" as="sourcePoint" />
            <mxPoint x="590" y="260" as="targetPoint" />
          </mxGeometry>
        </mxCell>
        <mxCell id="yCm6YWUvulbSdVLSz5F3-30" value="Pull" style="edgeLabel;html=1;align=center;verticalAlign=middle;resizable=0;points=[];" parent="yCm6YWUvulbSdVLSz5F3-19" vertex="1" connectable="0">
          <mxGeometry y="2" relative="1" as="geometry">
            <mxPoint as="offset" />
          </mxGeometry>
        </mxCell>
        <mxCell id="yCm6YWUvulbSdVLSz5F3-23" value="" style="endArrow=classic;html=1;rounded=0;entryX=0;entryY=0.5;entryDx=0;entryDy=0;exitX=1.008;exitY=0.138;exitDx=0;exitDy=0;exitPerimeter=0;" parent="1" source="yCm6YWUvulbSdVLSz5F3-7" target="yCm6YWUvulbSdVLSz5F3-9" edge="1">
          <mxGeometry width="50" height="50" relative="1" as="geometry">
            <mxPoint x="380" y="440" as="sourcePoint" />
            <mxPoint x="430" y="390" as="targetPoint" />
          </mxGeometry>
        </mxCell>
        <mxCell id="yCm6YWUvulbSdVLSz5F3-26" value="Run" style="edgeLabel;html=1;align=center;verticalAlign=middle;resizable=0;points=[];" parent="yCm6YWUvulbSdVLSz5F3-23" vertex="1" connectable="0">
          <mxGeometry x="-0.32" y="-5" relative="1" as="geometry">
            <mxPoint x="9" y="-5" as="offset" />
          </mxGeometry>
        </mxCell>
        <mxCell id="yCm6YWUvulbSdVLSz5F3-28" value="" style="endArrow=classic;html=1;rounded=0;entryX=0;entryY=0.5;entryDx=0;entryDy=0;" parent="1" target="yCm6YWUvulbSdVLSz5F3-10" edge="1">
          <mxGeometry width="50" height="50" relative="1" as="geometry">
            <mxPoint x="410" y="365" as="sourcePoint" />
            <mxPoint x="430" y="390" as="targetPoint" />
          </mxGeometry>
        </mxCell>
        <mxCell id="yCm6YWUvulbSdVLSz5F3-29" value="Build" style="edgeLabel;html=1;align=center;verticalAlign=middle;resizable=0;points=[];" parent="yCm6YWUvulbSdVLSz5F3-28" vertex="1" connectable="0">
          <mxGeometry y="-1" relative="1" as="geometry">
            <mxPoint as="offset" />
          </mxGeometry>
        </mxCell>
        <mxCell id="Exw7pLAdQY-dcTURbF30-1" value="" style="endArrow=none;dashed=1;html=1;rounded=0;exitX=0.5;exitY=0;exitDx=0;exitDy=0;entryX=0.5;entryY=1;entryDx=0;entryDy=0;" edge="1" parent="1" source="yCm6YWUvulbSdVLSz5F3-10" target="yCm6YWUvulbSdVLSz5F3-9">
          <mxGeometry width="50" height="50" relative="1" as="geometry">
            <mxPoint x="420" y="420" as="sourcePoint" />
            <mxPoint x="470" y="370" as="targetPoint" />
          </mxGeometry>
        </mxCell>
      </root>
    </mxGraphModel>
  </diagram>
</mxfile>
